<svg width="13" height="13" viewBox="0 0 13 13" fill="none" xmlns="http://www.w3.org/2000/svg">
<g clip-path="url(#clip0_2_1945)">
<path d="M0 1.09999C0.02 1.02999 0.03 0.94999 0.05 0.87999C0.22 0.29999 0.77 -9.76585e-06 1.22 -9.76585e-06C2.49 0.00999023 3.76 -9.76585e-06 5.03 -9.76585e-06C7.03 -9.76585e-06 9.03 -9.76585e-06 11.03 -0.0100098C11.63 -0.0100098 12.13 0.39999 12.25 0.98999C12.26 1.03999 12.27 1.08999 12.27 1.14999C12.27 1.58999 12.28 2.02999 12.27 2.47999C12.27 2.76999 12.06 3.00999 11.77 3.06999C11.49 3.11999 11.2 2.97999 11.1 2.70999C11.07 2.62999 11.06 2.52999 11.05 2.43999C11.03 2.25999 11.04 2.08999 11.01 1.90999C10.95 1.52999 10.76 1.33999 10.38 1.27999C10.23 1.25999 10.07 1.23999 9.91 1.23999C7.88 1.23999 5.85 1.23999 3.82 1.23999C3.31 1.23999 2.79 1.23999 2.28 1.23999C2.13 1.23999 1.98 1.25999 1.84 1.28999C1.52 1.34999 1.34 1.54999 1.29 1.85999C1.27 1.92999 1.26 2.00999 1.26 2.08999C1.25 2.25999 1.23 2.42999 1.23 2.58999C1.23 5.08999 1.23 7.57999 1.23 10.08C1.23 10.2 1.25 10.33 1.27 10.45C1.33 10.76 1.53 10.94 1.84 10.99C2.02 11.02 2.21 11.04 2.4 11.04C4.89 11.04 7.38 11.04 9.87 11.04C10.05 11.04 10.23 11.02 10.4 10.99C10.76 10.93 10.95 10.73 11 10.37C11.03 10.19 11.03 9.99999 11.04 9.80999C11.05 9.48999 11.25 9.24999 11.56 9.19999C11.91 9.13999 12.26 9.40999 12.27 9.76999C12.28 10.22 12.28 10.68 12.27 11.13C12.25 11.68 11.79 12.18 11.24 12.25C11.17 12.26 11.09 12.26 11.02 12.26C9.29 12.26 7.56 12.26 5.84 12.26C5.32 12.26 4.8 12.26 4.28 12.26C4.26 12.26 4.23 12.26 4.21 12.27C3.44 12.27 2.66 12.27 1.89 12.27C1.87 12.27 1.85 12.26 1.82 12.26C1.62 12.26 1.42 12.26 1.22 12.26C0.66 12.25 0.18 11.87 0.04 11.33C0.02 11.28 0.01 11.22 0 11.17C0 7.80999 0 4.45999 0 1.09999ZM1.77 11.05C1.77 11.04 1.77 11.04 1.77 11.05C1.6 11.05 1.43 11.05 1.25 11.05C1.43 11.05 1.6 11.05 1.77 11.05ZM11.04 11.04C11.04 11.01 11.04 10.98 11.05 10.95C11.04 10.98 11.04 11.01 11.04 11.04C10.92 11.03 10.8 11.03 10.69 11.03C10.69 11.03 10.69 11.03 10.69 11.04C10.8 11.04 10.92 11.04 11.04 11.04Z" fill="white"/>
<path d="M10.74 6.75992C10.53 6.75992 10.34 6.75992 10.15 6.75992C8.38996 6.75992 6.62996 6.75992 4.86996 6.75992C4.67996 6.75992 4.49996 6.75992 4.30996 6.75992C3.93996 6.75992 3.66996 6.48992 3.67996 6.13992C3.67996 5.79992 3.95996 5.52992 4.29996 5.52992C4.99996 5.52992 5.69996 5.52992 6.39996 5.52992C7.15996 5.52992 7.91996 5.52992 8.67996 5.52992C9.33996 5.52992 10.01 5.52992 10.67 5.52992C10.7 5.52992 10.72 5.52992 10.76 5.52992C10.73 5.49992 10.72 5.47992 10.7 5.46992C10.25 5.01992 9.79996 4.55992 9.33996 4.10992C9.12996 3.87992 9.09996 3.55992 9.25996 3.30992C9.47996 2.98992 9.91996 2.93992 10.2 3.21992C10.36 3.37992 10.52 3.53992 10.68 3.69992C11.3 4.31992 11.91 4.93992 12.53 5.55992C12.55 5.57992 12.57 5.59992 12.59 5.60992C12.95 5.86992 12.95 6.39992 12.59 6.65992C12.56 6.67992 12.54 6.69992 12.52 6.71992C11.76 7.48992 10.99 8.24992 10.23 9.01992C10.03 9.21992 9.76996 9.27992 9.52996 9.16992C9.12996 8.98992 9.03996 8.48992 9.34996 8.16992C9.58996 7.92992 9.82996 7.67992 10.08 7.43992C10.28 7.23992 10.49 7.02992 10.69 6.82992C10.7 6.79992 10.72 6.77992 10.74 6.75992Z" fill="white"/>
<path d="M1.77 11.05C1.6 11.05 1.43 11.05 1.25 11.05C1.43 11.04 1.6 11.04 1.77 11.05C1.77 11.04 1.77 11.04 1.77 11.05Z" fill="white"/>
<path d="M11.0404 11.04C10.9204 11.04 10.8004 11.04 10.6904 11.04C10.6904 11.04 10.6904 11.04 10.6904 11.03C10.8004 11.04 10.9204 11.04 11.0404 11.04C11.0404 11 11.0404 10.98 11.0404 10.95C11.0404 10.98 11.0404 11.01 11.0404 11.04Z" fill="white"/>
</g>
<defs>
<clipPath id="clip0_2_1945">
<rect width="12.86" height="12.28" fill="white"/>
</clipPath>
</defs>
</svg>
