<svg width="32" height="32" viewBox="0 0 32 32" fill="none" xmlns="http://www.w3.org/2000/svg">
<path d="M15.62 31.19C6.94001 31.18 -0.00998922 24.23 1.07778e-05 15.56C0.0100108 6.97998 6.95001 0.029975 15.52 -2.5035e-05C24.19 -0.030025 31.19 6.89998 31.22 15.55C31.26 24.19 24.26 31.2 15.62 31.19ZM17.1 25.46C17.1 22.54 17.1 19.77 17.1 16.95C18.15 16.9 19.04 16.85 20.01 16.8C20.15 15.66 20.27 14.63 20.42 13.4C19.21 13.4 18.18 13.4 17.17 13.4C16.95 10.25 16.95 10.25 20.56 9.50998C20.56 8.89998 20.61 8.23997 20.54 7.59997C20.5 7.25997 20.32 6.74997 20.07 6.63997C17.2 5.34997 13.76 7.48997 13.61 10.62C13.57 11.52 13.6 12.42 13.6 13.4C12.55 13.45 11.66 13.49 10.74 13.54C10.74 14.7 10.74 15.74 10.74 16.82C11.73 16.88 12.61 16.92 13.65 16.98C13.65 19.88 13.65 22.65 13.65 25.47C14.82 25.46 15.83 25.46 17.1 25.46Z" fill="white"/>
</svg>
