<svg width="89" height="50" viewBox="0 0 89 50" fill="none" xmlns="http://www.w3.org/2000/svg">
<g clip-path="url(#clip0_2_1951)">
<path d="M11.2202 0.522217L20.1149 20.9222H19.005L16.1583 14.3634H5.36086L2.4916 20.9222H1.4043L10.299 0.522217H11.2202ZM5.80635 13.3561H15.7129L10.7596 1.99215L5.80635 13.3561Z" fill="white"/>
<path d="M34.5744 20.9223H26.918V0.5H34.227V0.514923C35.5937 0.559693 36.7641 1.06708 37.7079 2.05201C38.6744 3.03693 39.1501 4.18602 39.1501 5.53656C39.1501 6.93188 38.6442 8.12573 37.655 9.11065C37.4814 9.28227 37.051 9.55089 36.3563 9.93889C37.353 10.297 38.1005 10.7373 38.614 11.2447C39.7541 12.3415 40.3129 13.6771 40.3129 15.2441C40.3129 16.811 39.7541 18.1466 38.6291 19.2584C37.5191 20.3552 36.1676 20.9074 34.5668 20.9223H34.5744ZM27.9675 1.52224V9.54343H34.0534C35.1633 9.5285 36.1147 9.14796 36.9 8.37942C37.6928 7.59596 38.093 6.64087 38.093 5.53656C38.093 4.43971 37.6928 3.48463 36.9 2.70863C36.1072 1.92516 35.1407 1.5297 34.0232 1.5297H27.9675V1.52224ZM27.9675 19.9001H34.5593V19.8852C35.8655 19.8702 36.9755 19.4151 37.8816 18.5197C38.8028 17.6094 39.2633 16.5125 39.2633 15.2366C39.2633 13.9681 38.8028 12.8787 37.8816 11.9684C36.9453 11.0432 35.7825 10.588 34.3856 10.588H27.9675V19.9001Z" fill="white"/>
<path d="M61.6064 0.537354V1.56705H54.3502V20.9298H53.3158V1.56705H46.0596V0.537354H61.6064Z" fill="white"/>
<path d="M85.8138 18.348C83.6996 20.4372 81.1323 21.4893 78.1272 21.4893C75.1295 21.4893 72.5699 20.4372 70.4406 18.348C68.3264 16.2438 67.2617 13.7069 67.2617 10.7521C67.2617 7.78242 68.3264 5.24549 70.4406 3.15624C72.5699 1.05208 75.1371 0 78.1272 0C81.1323 0 83.6996 1.05208 85.8138 3.15624C87.928 5.24549 88.9926 7.78242 88.9926 10.7521C89.0002 13.7144 87.9355 16.2438 85.8138 18.348Z" fill="white"/>
<path d="M19.8206 32.2041V50H15.5393V39.703L9.90651 47.5152L4.28124 39.703V50H0V32.2041H3.50352L9.90651 40.8595L16.3397 32.2041H19.8206Z" fill="white"/>
<path d="M43.8846 50H39.4674L38.1309 46.6721H31.2976L29.9611 50H25.5439L32.702 32.2563H36.7341L43.8846 50ZM32.5887 43.4114H36.8549L34.718 37.5839L32.5887 43.4114Z" fill="white"/>
<path d="M52.8855 43.0608C51.7755 42.4564 50.9601 41.576 50.4466 40.412C50.1748 39.6807 50.0313 38.942 50.0313 38.2108C50.0313 37.5318 50.1597 36.8379 50.3938 36.1589C51.7302 33.5622 53.8822 32.2639 56.8647 32.2639H63.2299V49.918H58.9411V44.0308H56.9025L52.7949 49.9926H47.9775L52.8855 43.0608ZM58.9411 40.8746V35.9425H57.129C55.2262 35.9425 54.2748 36.7558 54.2748 38.4048C54.2748 40.0538 55.2262 40.8746 57.129 40.8746H58.9411Z" fill="white"/>
<path d="M86.2964 32.2712L79.5989 40.479L87.3535 49.9999H81.8868L74.9326 41.3818V49.9999H70.6514V32.2712H74.9326V40.0089L81.1921 32.2712H86.2964Z" fill="white"/>
<path d="M78.1273 15.244C80.6419 15.244 82.6803 13.2296 82.6803 10.7447C82.6803 8.25978 80.6419 6.24536 78.1273 6.24536C75.6127 6.24536 73.5742 8.25978 73.5742 10.7447C73.5742 13.2296 75.6127 15.244 78.1273 15.244Z" fill="#FFD740"/>
</g>
<defs>
<clipPath id="clip0_2_1951">
<rect width="89" height="50" fill="white"/>
</clipPath>
</defs>
</svg>
