<svg width="32" height="32" viewBox="0 0 32 32" fill="none" xmlns="http://www.w3.org/2000/svg">
<path d="M15.6002 -1.77293e-05C24.2802 0.0199823 31.2302 6.98998 31.2002 15.64C31.1702 24.31 24.1902 31.23 15.5202 31.19C6.86017 31.16 -0.039827 24.17 0.000173035 15.48C0.040173 6.88998 7.01017 -0.0200177 15.6002 -1.77293e-05ZM8.14017 21.41C13.4402 24.86 20.9102 21.75 22.6202 15.34C23.0602 13.71 22.6802 11.77 24.4002 10.62C24.0402 10.68 23.6702 10.75 23.2002 10.83C23.5802 10.25 23.8602 9.80998 24.2302 9.24998C22.6002 9.71998 22.6002 9.71998 20.7202 8.99998C18.6602 8.20998 16.3402 9.51998 15.9502 11.71C15.8702 12.15 15.8602 12.59 15.7902 13.27C14.4202 12.81 13.1002 12.54 11.9602 11.96C10.7802 11.35 9.76017 10.44 8.66017 9.64998C7.80017 11.27 8.40017 12.65 9.48017 14.04C8.98017 13.96 8.66017 13.9 8.34017 13.85C8.23017 13.95 8.11017 14.06 8.00017 14.16C8.70017 15.18 9.41017 16.19 10.1302 17.24C10.1102 17.25 9.85017 17.35 9.16017 17.62C10.3702 18.54 11.3202 19.26 12.5002 20.16C11.0102 20.57 9.59017 20.99 8.14017 21.41Z" fill="white"/>
</svg>
