<svg width="32" height="32" viewBox="0 0 32 32" fill="none" xmlns="http://www.w3.org/2000/svg">
<path d="M15.5603 -1.7978e-05C24.2303 -0.020018 31.2103 6.92998 31.2203 15.59C31.2303 24.18 24.3003 31.16 15.7403 31.2C7.04027 31.23 0.0602677 24.35 0.000267717 15.69C-0.0497323 7.03998 6.91027 0.019982 15.5603 -1.7978e-05ZM5.02027 11C6.80027 14.72 8.17027 18.16 11.2203 20.4C12.3303 21.21 13.9103 21.42 15.3203 21.76C16.2803 21.99 17.0003 21.67 17.0203 20.45C17.0303 20.06 17.3103 19.47 17.6103 19.35C17.8703 19.24 18.5103 19.57 18.7103 19.88C19.9503 21.8 21.7803 22.02 23.7903 21.78C24.2103 21.73 24.9203 21.58 24.9703 21.35C25.0603 20.95 24.8703 20.37 24.5903 20.02C24.0003 19.26 23.3203 18.56 22.6103 17.92C21.8403 17.24 21.8103 16.61 22.4503 15.84C23.0603 15.1 23.6803 14.34 24.1703 13.51C24.5603 12.84 24.7703 12.07 25.0703 11.34C24.3503 11.23 23.6203 11.15 22.9103 11.02C21.2603 10.71 20.3203 11.32 19.7103 12.94C19.2803 14.09 18.3603 15.06 17.6503 16.11C17.4303 16.04 17.2103 15.97 16.9903 15.89C16.9903 14.66 17.0603 13.42 16.9603 12.2C16.9203 11.67 16.6303 10.81 16.2903 10.72C14.8903 10.34 13.4303 10.25 11.9903 10.96C13.3203 12.33 13.5203 14.5 12.2903 16.29C11.4203 14.83 10.6703 13.49 9.85027 12.21C9.55027 11.75 9.11027 11.13 8.66027 11.06C7.61027 10.88 6.54027 11 5.02027 11Z" fill="white"/>
</svg>
